<mxfile host="app.diagrams.net" agent="Mozilla/5.0 (Windows NT 10.0; Win64; x64) AppleWebKit/537.36 (KHTML, like Gecko) Chrome/131.0.0.0 Safari/537.36 Edg/131.0.0.0" version="26.0.2">
  <diagram name="Page-1" id="l2Kele2ydAgOPlvw6YNG">
    <mxGraphModel dx="1426" dy="791" grid="1" gridSize="10" guides="0" tooltips="1" connect="1" arrows="1" fold="1" page="1" pageScale="1" pageWidth="1700" pageHeight="1100" math="0" shadow="0">
      <root>
        <mxCell id="0" />
        <mxCell id="1" parent="0" />
        <mxCell id="XzEUsxfF51lW0wZKHU5--5" style="edgeStyle=orthogonalEdgeStyle;rounded=0;orthogonalLoop=1;jettySize=auto;html=1;exitX=0.5;exitY=1;exitDx=0;exitDy=0;entryX=0.5;entryY=0;entryDx=0;entryDy=0;" parent="1" source="XzEUsxfF51lW0wZKHU5--1" target="XzEUsxfF51lW0wZKHU5--2" edge="1">
          <mxGeometry relative="1" as="geometry" />
        </mxCell>
        <mxCell id="XzEUsxfF51lW0wZKHU5--1" value="START" style="rounded=1;whiteSpace=wrap;html=1;" parent="1" vertex="1">
          <mxGeometry x="460" y="60" width="120" height="60" as="geometry" />
        </mxCell>
        <mxCell id="XzEUsxfF51lW0wZKHU5--8" value="" style="edgeStyle=orthogonalEdgeStyle;rounded=0;orthogonalLoop=1;jettySize=auto;html=1;" parent="1" source="XzEUsxfF51lW0wZKHU5--2" target="XzEUsxfF51lW0wZKHU5--6" edge="1">
          <mxGeometry relative="1" as="geometry" />
        </mxCell>
        <mxCell id="XzEUsxfF51lW0wZKHU5--2" value="Read ARRCUS" style="rounded=1;whiteSpace=wrap;html=1;" parent="1" vertex="1">
          <mxGeometry x="415" y="200" width="210" height="60" as="geometry" />
        </mxCell>
        <mxCell id="XzEUsxfF51lW0wZKHU5--3" value="ARRCUS" style="shape=cylinder3;whiteSpace=wrap;html=1;boundedLbl=1;backgroundOutline=1;size=15;" parent="1" vertex="1">
          <mxGeometry x="850" y="190" width="100" height="80" as="geometry" />
        </mxCell>
        <mxCell id="XzEUsxfF51lW0wZKHU5--4" style="edgeStyle=orthogonalEdgeStyle;rounded=0;orthogonalLoop=1;jettySize=auto;html=1;exitX=1;exitY=0.5;exitDx=0;exitDy=0;entryX=0;entryY=0.5;entryDx=0;entryDy=0;entryPerimeter=0;" parent="1" source="XzEUsxfF51lW0wZKHU5--2" target="XzEUsxfF51lW0wZKHU5--3" edge="1">
          <mxGeometry relative="1" as="geometry" />
        </mxCell>
        <mxCell id="XzEUsxfF51lW0wZKHU5--10" style="edgeStyle=orthogonalEdgeStyle;rounded=0;orthogonalLoop=1;jettySize=auto;html=1;exitX=1;exitY=0.5;exitDx=0;exitDy=0;entryX=0;entryY=0.5;entryDx=0;entryDy=0;" parent="1" source="XzEUsxfF51lW0wZKHU5--6" target="XzEUsxfF51lW0wZKHU5--9" edge="1">
          <mxGeometry relative="1" as="geometry" />
        </mxCell>
        <mxCell id="XzEUsxfF51lW0wZKHU5--11" value="NO" style="edgeLabel;html=1;align=center;verticalAlign=middle;resizable=0;points=[];" parent="XzEUsxfF51lW0wZKHU5--10" vertex="1" connectable="0">
          <mxGeometry x="-0.0941" y="-4" relative="1" as="geometry">
            <mxPoint as="offset" />
          </mxGeometry>
        </mxCell>
        <mxCell id="XzEUsxfF51lW0wZKHU5--6" value="ARRCUS Exists?" style="rhombus;whiteSpace=wrap;html=1;" parent="1" vertex="1">
          <mxGeometry x="450" y="340" width="140" height="110" as="geometry" />
        </mxCell>
        <mxCell id="XzEUsxfF51lW0wZKHU5--9" value="ERROR: 1500&lt;br&gt;Customer ID is invalid" style="shape=hexagon;perimeter=hexagonPerimeter2;whiteSpace=wrap;html=1;fixedSize=1;" parent="1" vertex="1">
          <mxGeometry x="760" y="351.25" width="100" height="87.5" as="geometry" />
        </mxCell>
        <mxCell id="glR3XG1QDC5jiJAusbpo-4" value="" style="edgeStyle=orthogonalEdgeStyle;rounded=0;orthogonalLoop=1;jettySize=auto;html=1;" parent="1" source="XzEUsxfF51lW0wZKHU5--12" target="glR3XG1QDC5jiJAusbpo-1" edge="1">
          <mxGeometry relative="1" as="geometry" />
        </mxCell>
        <mxCell id="XzEUsxfF51lW0wZKHU5--12" value="Branch Access Check&amp;nbsp;" style="ellipse;shape=cloud;whiteSpace=wrap;html=1;" parent="1" vertex="1">
          <mxGeometry x="415" y="495" width="200" height="110" as="geometry" />
        </mxCell>
        <mxCell id="XzEUsxfF51lW0wZKHU5--13" value="YES" style="edgeStyle=orthogonalEdgeStyle;rounded=0;orthogonalLoop=1;jettySize=auto;html=1;exitX=0.5;exitY=1;exitDx=0;exitDy=0;entryX=0.525;entryY=0.118;entryDx=0;entryDy=0;entryPerimeter=0;" parent="1" source="XzEUsxfF51lW0wZKHU5--6" target="XzEUsxfF51lW0wZKHU5--12" edge="1">
          <mxGeometry relative="1" as="geometry" />
        </mxCell>
        <mxCell id="glR3XG1QDC5jiJAusbpo-3" value="NO" style="edgeStyle=orthogonalEdgeStyle;rounded=0;orthogonalLoop=1;jettySize=auto;html=1;exitX=1;exitY=0.5;exitDx=0;exitDy=0;entryX=0;entryY=0.5;entryDx=0;entryDy=0;" parent="1" edge="1">
          <mxGeometry relative="1" as="geometry">
            <mxPoint x="615" y="739.5" as="sourcePoint" />
            <mxPoint x="765" y="739.5" as="targetPoint" />
          </mxGeometry>
        </mxCell>
        <mxCell id="glR3XG1QDC5jiJAusbpo-6" value="YES" style="edgeStyle=orthogonalEdgeStyle;rounded=0;orthogonalLoop=1;jettySize=auto;html=1;" parent="1" source="glR3XG1QDC5jiJAusbpo-1" target="glR3XG1QDC5jiJAusbpo-5" edge="1">
          <mxGeometry relative="1" as="geometry" />
        </mxCell>
        <mxCell id="glR3XG1QDC5jiJAusbpo-1" value="User has Branch Access?" style="rhombus;whiteSpace=wrap;html=1;" parent="1" vertex="1">
          <mxGeometry x="432.5" y="670" width="165" height="140" as="geometry" />
        </mxCell>
        <mxCell id="glR3XG1QDC5jiJAusbpo-2" value="ERROR 4263&lt;br&gt;Access to Account not provided" style="shape=hexagon;perimeter=hexagonPerimeter2;whiteSpace=wrap;html=1;fixedSize=1;" parent="1" vertex="1">
          <mxGeometry x="760" y="700" width="120" height="80" as="geometry" />
        </mxCell>
        <mxCell id="glR3XG1QDC5jiJAusbpo-5" value="Return Details" style="ellipse;whiteSpace=wrap;html=1;aspect=fixed;" parent="1" vertex="1">
          <mxGeometry x="470" y="920" width="90" height="90" as="geometry" />
        </mxCell>
      </root>
    </mxGraphModel>
  </diagram>
</mxfile>
